# Low-poly UV sphere for moon
v 0.0 0.0 1.0
v 0.8944 0.0 0.4472
v 0.2764 0.8506 0.4472
v -0.7236 0.5257 0.4472
v -0.7236 -0.5257 0.4472
v 0.2764 -0.8506 0.4472
v 0.7236 0.5257 -0.4472
v -0.2764 0.8506 -0.4472
v -0.8944 0.0 -0.4472
v -0.2764 -0.8506 -0.4472
v 0.7236 -0.5257 -0.4472
v 0.0 0.0 -1.0

vn 0 0 1
vn 1 0 0
vn 0 1 0
vn -1 0 0
vn 0 -1 0
vn 0 0 -1

vt 0.0 0.0

f 1/1/1 2/1/1 3/1/1
f 1/1/1 3/1/1 4/1/1
f 1/1/1 4/1/1 5/1/1
f 1/1/1 5/1/1 6/1/1
f 1/1/1 6/1/1 2/1/1
f 2/1/2 7/1/2 3/1/2
f 3/1/3 7/1/3 8/1/3
f 3/1/3 8/1/3 4/1/3
f 4/1/4 8/1/4 9/1/4
f 4/1/4 9/1/4 5/1/4
f 5/1/5 9/1/5 10/1/5
f 5/1/5 10/1/5 6/1/5
f 6/1/2 10/1/2 7/1/2
f 6/1/2 7/1/2 2/1/2
f 7/1/6 11/1/6 8/1/6
f 8/1/6 11/1/6 9/1/6
f 9/1/6 11/1/6 10/1/6
f 10/1/6 11/1/6 7/1/6
